<?xml version="1.0" standalone="no"?>
<!DOCTYPE svg PUBLIC "-//W3C//DTD SVG 20010904//EN"
 "http://www.w3.org/TR/2001/REC-SVG-20010904/DTD/svg10.dtd">
<svg version="1.0" xmlns="http://www.w3.org/2000/svg"
 width="233.000000pt" height="233.000000pt" viewBox="0 0 233.000000 233.000000"
 preserveAspectRatio="xMidYMid meet">

<g transform="translate(0.000000,233.000000) scale(0.100000,-0.100000)"
fill="#512DA8" stroke="none">
<path d="M1058 2130 c-43 -11 -109 -50 -152 -89 -62 -57 -106 -160 -106 -251
0 -148 97 -317 224 -390 45 -25 64 -30 121 -30 57 0 76 5 119 30 69 40 88 57
131 114 94 125 121 295 65 423 -26 62 -104 139 -174 173 -55 26 -165 36 -228
20z m194 -169 c19 -14 46 -40 59 -59 21 -31 24 -47 24 -116 -1 -100 -25 -159
-91 -222 -43 -40 -52 -44 -96 -44 -69 0 -118 41 -164 136 -28 58 -34 83 -34
135 0 67 8 86 59 143 39 43 77 57 147 53 45 -2 71 -9 96 -26z"/>
<path d="M370 1490 c-17 -17 -20 -33 -20 -114 l0 -95 -74 -35 c-62 -30 -79
-44 -112 -92 -38 -55 -39 -58 -42 -160 -3 -90 -1 -110 17 -148 34 -70 80 -114
146 -141 l60 -24 2 -78 c1 -43 2 -83 2 -89 2 -35 223 -125 673 -275 l127 -42
228 78 c125 43 242 84 258 91 17 7 67 27 112 43 97 36 178 76 190 93 4 7 6 52
4 99 l-3 85 42 13 c60 18 132 93 155 160 25 77 18 209 -15 275 -25 50 -78 96
-136 121 l-32 13 -4 100 c-6 148 -31 167 -160 118 -235 -90 -338 -130 -443
-171 -66 -26 -139 -54 -161 -63 -39 -15 -45 -15 -85 2 -68 28 -351 138 -597
232 -77 29 -106 30 -132 4z m183 -181 c11 -7 73 -31 136 -55 64 -23 143 -53
176 -67 33 -13 93 -36 133 -51 l72 -28 0 -365 0 -364 -22 7 c-13 3 -52 17 -88
31 -36 13 -121 44 -190 68 -69 24 -158 56 -197 71 l-73 27 1 61 c0 61 0 61 48
98 75 56 96 109 96 238 0 97 -2 109 -29 158 -19 34 -45 62 -72 80 -38 24 -43
31 -44 65 0 40 13 47 53 26z m1247 -11 c0 -30 -9 -42 -45 -61 -46 -23 -82 -64
-110 -123 -33 -70 -35 -195 -4 -264 23 -50 80 -114 122 -136 27 -14 28 -18 25
-76 l-3 -60 -80 -30 c-44 -16 -129 -46 -190 -67 -60 -21 -150 -53 -199 -70
-50 -17 -91 -31 -93 -31 -2 0 -3 164 -3 363 l0 364 38 16 c20 9 73 30 117 46
97 35 297 113 345 135 52 23 80 21 80 -6z m-1339 -207 c38 -37 39 -41 39 -107
0 -88 -22 -128 -79 -145 -50 -15 -86 -6 -122 31 -27 27 -29 34 -29 107 0 87 3
93 50 128 51 38 94 34 141 -14z m1473 30 c43 -17 76 -78 76 -142 0 -114 -90
-181 -180 -134 -48 25 -60 51 -60 136 l0 77 40 36 c42 38 75 45 124 27z"/>
</g>
</svg>
